<svg width="300" height="80" viewBox="0 0 300 80" fill="none" xmlns="http://www.w3.org/2000/svg">
  <!-- Background -->
  <rect width="300" height="80" fill="#14B8A6"/>
  
  <!-- Circular Icon with Leaf -->
  <circle cx="35" cy="40" r="25" stroke="white" stroke-width="2" fill="none"/>
  
  <!-- Leaf design inside circle -->
  <path d="M35 20 C25 25, 25 35, 35 40 C45 35, 45 25, 35 20 Z" fill="white"/>
  <path d="M35 20 L35 40 M35 30 C30 32, 30 32, 35 30 C40 32, 40 32, 35 30" stroke="white" stroke-width="1" fill="none"/>
  
  <!-- Connection line from circle -->
  <line x1="60" y1="40" x2="80" y2="40" stroke="white" stroke-width="3"/>
  
  <!-- Leaves above VITACH -->
  <path d="M90 25 C85 20, 85 30, 90 35 C95 30, 95 20, 90 25 Z" fill="white"/>
  <path d="M110 25 C105 20, 105 30, 110 35 C115 30, 115 20, 110 25 Z" fill="white"/>
  
  <!-- VITACH text -->
  <text x="90" y="55" font-family="Arial, sans-serif" font-size="28" fill="white" font-weight="bold">VITACH</text>
  
  <!-- GUINÉE text -->
  <text x="90" y="70" font-family="Arial, sans-serif" font-size="14" fill="white">GUINÉE</text>
  
  <!-- Curved line below GUINÉE -->
  <path d="M80 75 C140 85, 200 85, 260 75" stroke="white" stroke-width="2" fill="none"/>
</svg>
